<svg width="112" height="32" viewBox="0 0 112 32" fill="none" xmlns="http://www.w3.org/2000/svg">
    <path d="M40 22.227C40 23.1455 40.7102 23.8718 41.6083 23.8718C42.5064 23.8718 43.2166 23.1455 43.2166 22.227V19.2577H45.6603C48.9396 19.2577 51.5713 17.4633 51.5713 14.0027V13.9599C51.5713 10.9052 49.4617 8.79039 45.9736 8.79039H41.6083C40.7102 8.79039 40 9.51669 40 10.4352V22.227ZM43.2166 16.3311V11.7597H45.7021C47.3104 11.7597 48.313 12.5501 48.313 14.024V14.0668C48.313 15.3485 47.373 16.3311 45.7648 16.3311H43.2166Z" fill="#1F2128"/>
    <path d="M56.5884 23.9573C58.134 23.9573 59.1992 23.3805 59.972 22.5047V22.526C59.972 23.2096 60.5778 23.8718 61.4968 23.8718C62.3531 23.8718 63.0424 23.1883 63.0424 22.3124V17.1001C63.0424 15.5621 62.6665 14.3017 61.831 13.4473C61.0373 12.6355 59.7841 12.1656 58.0505 12.1656C56.5675 12.1656 55.4814 12.3792 54.4788 12.7637C53.9775 12.9559 53.6225 13.4473 53.6225 14.024C53.6225 14.7717 54.2073 15.3485 54.9383 15.3485C55.0845 15.3485 55.2099 15.3271 55.3978 15.263C56.0036 15.0708 56.7137 14.9426 57.591 14.9426C59.1784 14.9426 59.9929 15.6903 59.9929 17.036V17.2283C59.1992 16.9506 58.3846 16.7583 57.2568 16.7583C54.6041 16.7583 52.7452 17.9119 52.7452 20.4112V20.4539C52.7452 22.7183 54.4788 23.9573 56.5884 23.9573ZM57.5492 21.7143C56.5257 21.7143 55.8156 21.2016 55.8156 20.3258V20.283C55.8156 19.2577 56.651 18.7023 58.0087 18.7023C58.7815 18.7023 59.4917 18.8732 60.0347 19.1295V19.7063C60.0347 20.8812 59.0321 21.7143 57.5492 21.7143Z" fill="#1F2128"/>
    <path d="M71.0587 24C72.8968 24 74.0873 23.4019 75.0272 22.526C75.2987 22.2697 75.4867 21.9279 75.4867 21.5007C75.4867 20.7316 74.9019 20.1121 74.15 20.1121C73.774 20.1121 73.4607 20.283 73.2936 20.4112C72.6879 20.9025 72.0404 21.2016 71.2049 21.2016C69.4713 21.2016 68.3643 19.7917 68.3643 18.0401V17.9973C68.3643 16.3097 69.4922 14.8785 71.0796 14.8785C71.9151 14.8785 72.4999 15.1562 73.0638 15.6048C73.2518 15.7543 73.5651 15.9252 73.9829 15.9252C74.7766 15.9252 75.4241 15.2844 75.4241 14.4726C75.4241 13.9172 75.1316 13.5327 74.9228 13.3618C73.9829 12.5501 72.7923 12.0801 71.1005 12.0801C67.675 12.0801 65.2313 14.7717 65.2313 18.0401V18.0828C65.2313 21.3511 67.6959 24 71.0587 24Z" fill="#1F2128"/>
    <path d="M77.665 9.60214C77.665 10.5421 78.4378 11.1402 79.4404 11.1402C80.4429 11.1402 81.2157 10.5421 81.2157 9.60214V9.55941C81.2157 8.61949 80.4429 8.04272 79.4404 8.04272C78.4378 8.04272 77.665 8.61949 77.665 9.55941V9.60214ZM77.853 22.2483C77.853 23.1455 78.5631 23.8718 79.4404 23.8718C80.3176 23.8718 81.0278 23.1455 81.0278 22.2483V13.7891C81.0278 12.8919 80.3176 12.1656 79.4404 12.1656C78.5631 12.1656 77.853 12.8919 77.853 13.7891V22.2483Z" fill="#1F2128"/>
    <path d="M84.5526 22.2483C84.5526 23.1455 85.2627 23.8718 86.14 23.8718C87.0172 23.8718 87.7274 23.1455 87.7274 22.2483V15.0708H89.0641C89.7952 15.0708 90.38 14.494 90.38 13.7463C90.38 12.9987 89.7952 12.4219 89.0641 12.4219H87.6856V11.9733C87.6856 11.1188 88.1033 10.7343 88.8344 10.7343H89.1059C89.8161 10.7343 90.4009 10.1148 90.4009 9.38852C90.4009 8.66222 89.8578 8.17089 89.3148 8.08545C88.9597 8.02136 88.5211 8 88.0198 8C86.8919 8 86.0355 8.29907 85.4507 8.8972C84.8659 9.49533 84.5526 10.4139 84.5526 11.6742V12.4005H84.4273C83.6962 12.4005 83.1114 12.9987 83.1114 13.7463C83.1114 14.494 83.6962 15.0708 84.4273 15.0708H84.5526V22.2483ZM92.1345 22.2483C92.1345 23.1455 92.8447 23.8718 93.7219 23.8718C94.5991 23.8718 95.3093 23.1455 95.3093 22.2483V13.7891C95.3093 12.8919 94.5991 12.1656 93.7219 12.1656C92.8447 12.1656 92.1345 12.8919 92.1345 13.7891V22.2483ZM91.9465 9.60214C91.9465 10.5421 92.7193 11.1402 93.7219 11.1402C94.7245 11.1402 95.4973 10.5421 95.4973 9.60214V9.55941C95.4973 8.61949 94.7245 8.04272 93.7219 8.04272C92.7193 8.04272 91.9465 8.61949 91.9465 9.55941V9.60214Z" fill="#1F2128"/>
    <path d="M103.572 24C105.41 24 106.601 23.4019 107.54 22.526C107.812 22.2697 108 21.9279 108 21.5007C108 20.7316 107.415 20.1121 106.663 20.1121C106.287 20.1121 105.974 20.283 105.807 20.4112C105.201 20.9025 104.554 21.2016 103.718 21.2016C101.985 21.2016 100.878 19.7917 100.878 18.0401V17.9973C100.878 16.3097 102.005 14.8785 103.593 14.8785C104.428 14.8785 105.013 15.1562 105.577 15.6048C105.765 15.7543 106.078 15.9252 106.496 15.9252C107.29 15.9252 107.937 15.2844 107.937 14.4726C107.937 13.9172 107.645 13.5327 107.436 13.3618C106.496 12.5501 105.306 12.0801 103.614 12.0801C100.188 12.0801 97.7446 14.7717 97.7446 18.0401V18.0828C97.7446 21.3511 100.209 24 103.572 24Z" fill="#1F2128"/>
    <path fill-rule="evenodd" clip-rule="evenodd" d="M16 32C24.8366 32 32 24.8366 32 16C32 7.16344 24.8366 0 16 0C7.16344 0 0 7.16344 0 16C0 24.8366 7.16344 32 16 32ZM7.23555 24.8849C4.94156 22.6219 3.5197 19.477 3.5197 16C3.5197 9.10732 9.10732 3.5197 16 3.5197C22.223 3.5197 27.3822 8.07425 28.326 14.0317H19.5441C17.7167 14.0317 16.2353 12.5607 16.2353 10.746C16.2353 10.3857 16.2937 10.039 16.4016 9.71459C15.1913 10.5365 14.3971 11.9182 14.3971 13.4841C14.3971 16.0045 16.4546 18.0476 18.9926 18.0476H28.3131C28.2311 18.5449 28.1196 19.0323 27.9805 19.5079H18.9926C15.6424 19.5079 12.9265 16.811 12.9265 13.4841C12.9265 12.2769 13.2841 11.1526 13.8999 10.2101C11.9792 11.5274 10.7206 13.7289 10.7206 16.2222C10.7206 20.2548 14.0126 23.5238 18.0735 23.5238H25.9583C25.5647 24.0439 25.1314 24.5322 24.6628 24.9841H18.0735C13.2004 24.9841 9.25 21.0613 9.25 16.2222C9.25 11.3832 13.2004 7.46032 18.0735 7.46032H19.5441C19.9502 7.46032 20.2794 7.13341 20.2794 6.73016C20.2794 6.3269 19.9502 6 19.5441 6H18.6358C12.6173 6 7.70999 10.7912 7.608 16.7668L7.48663 23.8771C7.47982 24.2763 7.38251 24.6044 7.23555 24.8849Z" fill="url(#paint0_radial)"/>
    <defs>
        <radialGradient id="paint0_radial" cx="0" cy="0" r="1" gradientUnits="userSpaceOnUse" gradientTransform="translate(22.5) rotate(100.424) scale(35.9262 30.862)">
            <stop stop-color="white"/>
            <stop offset="0.372391" stop-color="#BB91FF"/>
            <stop offset="0.533856" stop-color="#9155F2"/>
            <stop offset="0.716155" stop-color="#4A26D0"/>
            <stop offset="0.846368" stop-color="#200ABC"/>
            <stop offset="1" stop-color="#00EBFF"/>
        </radialGradient>
    </defs>
</svg>
