<svg xmlns="http://www.w3.org/2000/svg" viewBox="0 0 604 151"><path d="M424 89c-9-13-29-19-44-23l-5-2c-8-2-17-4-24-8-8-4-12-10-12-17a18 18 0 0 1 0-4 16 16 0 0 1 1-1 2 2 0 0 1 0-1 20 20 0 0 1 5-8c6-6 15-9 26-9a56 56 0 0 1 23 5 61 61 0 0 1 18 14l1 15h13V4h-13v11h-1a67 67 0 0 0-18-10 71 71 0 0 0-22-4c-9 0-16 1-22 3a41 41 0 0 0-13 7 35 35 0 0 0-10 13 36 36 0 0 0-4 15 32 32 0 0 0 1 9 34 34 0 0 0 5 10l1 1c1 1 0 0 0 0 9 12 28 17 42 21l4 1 3 1a139 139 0 0 1 21 7 25 25 0 0 1 10 7 22 22 0 0 1 4 10 21 21 0 0 1 0 11 27 27 0 0 1-7 10 32 32 0 0 1-12 7 48 48 0 0 1-12 2 64 64 0 0 1-21-2c-11-4-21-10-28-19a3 3 0 0 1 0-1v-13h-14v48h14v-14a58 58 0 0 0 18 11 78 78 0 0 0 26 5h1c7 0 24 0 38-12a39 39 0 0 0 9-11 40 40 0 0 0 4-14 37 37 0 0 0-1-13 31 31 0 0 0-5-12zm-130 0c-9-13-29-19-44-23l-5-2c-16-4-36-8-37-25a18 18 0 0 1 2-7 22 22 0 0 1 5-7c6-6 15-9 25-9h1a56 56 0 0 1 22 5 60 60 0 0 1 19 14v15h13V4h-13v11a67 67 0 0 0-19-10 71 71 0 0 0-22-4c-8 0-15 1-21 3a41 41 0 0 0-13 7 35 35 0 0 0-11 13 36 36 0 0 0-3 15 33 33 0 0 0 1 9 35 35 0 0 0 5 10c8 13 28 18 43 22l3 1 3 1h1a138 138 0 0 1 21 7 26 26 0 0 1 9 7 22 22 0 0 1 5 10 21 21 0 0 1-1 11 27 27 0 0 1-6 11 31 31 0 0 1-12 6 47 47 0 0 1-13 2h-2a65 65 0 0 1-18-2l-2-1-4-1a60 60 0 0 1-18-12l-3-3v-1l-1-1a3 3 0 0 1-1-1v-13h-13v48h13v-14a58 58 0 0 0 19 11 78 78 0 0 0 25 5h1c8 0 25 0 38-12a39 39 0 0 0 9-11 40 40 0 0 0 5-14 37 37 0 0 0-1-13 31 31 0 0 0-5-12zm-136 48-36-54a40 40 0 0 0 18-4c8-4 14-9 18-16a44 44 0 0 0 5-20 42 42 0 0 0-12-29c-9-8-19-12-32-12H49v16h15v120H48v12h47v-12H79V83h26l35 55h-16v12h50v-12h-15a1 1 0 0 1-1-1zM79 17h39c12 0 21 5 26 13a27 27 0 0 1-1 26c-4 8-10 13-22 13H79zm471 90c0-19-9-32-24-37 13-7 19-18 19-30 0-26-22-40-51-40-16 0-33 5-44 22l12 7c6-8 15-15 32-15 21 0 36 9 36 25 0 15-15 24-31 24h-21v15h22c20 0 35 11 35 28-1 19-18 30-40 30-14 0-30-5-41-17l-1-1-10 12c15 14 33 21 52 21 30 0 55-17 55-44z"/><path fill="#0b70ff" d="M0 68h38v16H0zm566 0h38v16h-38z"/></svg>