<?xml version="1.0" encoding="UTF-8"?>
<svg width="137px" height="43px" viewBox="0 0 137 43" version="1.1" xmlns="http://www.w3.org/2000/svg" xmlns:xlink="http://www.w3.org/1999/xlink">
    <title>编组</title>
    <defs>
        <polygon id="path-1" points="0.18192 0.2355 3.81552 0.2355 3.81552 4.16487 0.18192 4.16487"></polygon>
        <polygon id="path-3" points="0 0.192658514 41.85405 0.192658514 41.85405 5.09991 0 5.09991"></polygon>
    </defs>
    <g id="页面-1" stroke="none" stroke-width="1" fill="none" fill-rule="evenodd">
        <g id="首页" transform="translate(-340.000000, -15.000000)">
            <g id="编组-23" transform="translate(0.000000, 1.000000)">
                <g id="编组" transform="translate(340.000000, 14.000000)">
                    <g transform="translate(18.900000, 0.064500)">
                        <mask id="mask-2" fill="white">
                            <use xlink:href="#path-1"></use>
                        </mask>
                        <g id="Clip-2"></g>
                        <path d="M1.92972,0.23547 C1.98312,0.97677 1.97712,1.72917 2.11692,2.45427 C2.17872,2.77467 2.51022,3.06387 2.76612,3.32127 C3.02982,3.58677 3.34992,3.79617 3.81552,4.16487 L0.18192,4.16487 C0.72162,3.60447 1.44072,3.15747 1.68072,2.52867 C1.93842,1.85307 1.74612,1.00677 1.75002,0.23547 L1.92972,0.23547 Z" id="Fill-1" fill="#FFFFFF" mask="url(#mask-2)"></path>
                    </g>
                    <path d="M17.69526,35.3106 C18.16116,28.4559 18.62706,21.6018 19.09326,14.7471 C18.97716,14.7123 18.86136,14.6775 18.74556,14.6424 C18.47136,15.2967 18.05766,15.9288 17.94846,16.6089 C17.53686,19.1703 17.20416,21.7452 16.87986,24.3195 C16.43196,27.8718 16.02876,31.4298 15.56616,34.98 C15.53436,35.2233 15.20346,35.5224 14.94546,35.6184 C14.57286,35.757 14.13966,35.7339 13.59186,35.7957 C13.81716,34.0173 14.01636,32.3418 14.24406,30.6693 C14.87976,25.9989 15.55206,21.333 16.15956,16.659 C16.44096,14.4924 17.36256,12.8667 19.53516,12.1467 C21.78186,11.4024 24.52896,13.1997 24.95256,15.7971 C25.54806,19.4475 26.04426,23.1141 26.56806,26.7759 C26.99046,29.7285 27.39096,32.6835 27.82266,35.7924 C27.17016,35.7171 26.57586,35.6487 26.09016,35.5929 C25.04706,28.8333 24.02136,22.1805 22.98666,15.5292 C22.97256,15.4395 22.84266,15.3672 22.65816,15.1716 C23.12406,21.9798 23.57946,28.6353 24.03336,35.2731 C23.42166,35.5842 23.35986,35.2383 23.33196,34.7907 C23.17416,32.2578 22.99866,29.7267 22.84116,27.1938 C22.58946,23.1417 22.33596,19.0896 22.11306,15.0354 C22.07886,14.4156 21.81006,14.1924 21.17976,14.1897 L21.17976,35.3346 C20.39826,35.5101 20.53506,34.9767 20.53596,34.6059 C20.54346,31.7691 20.56476,28.9326 20.57886,26.0958 C20.59716,22.3335 20.61336,18.5712 20.62776,14.8086 C20.62866,14.6034 20.60436,14.3976 20.59056,14.1708 C19.79826,13.929 19.64436,14.3628 19.60806,14.982 C19.41906,18.2304 19.21926,21.4785 19.02396,24.7266 C18.82686,28.0044 18.63906,31.2831 18.42066,34.5597 C18.39996,34.8729 18.19026,35.1735 18.06816,35.4798 C17.94396,35.4237 17.81976,35.367 17.69526,35.3106" id="Fill-3" fill="#FFFFFF"></path>
                    <path d="M37.93002,21.26451 L37.93002,23.10861 C38.53782,23.10861 39.09612,23.12001 39.65352,23.10561 C40.25052,23.09061 40.62012,22.79931 40.60722,22.17471 C40.59402,21.54861 40.19142,21.28731 39.61212,21.26811 C39.08022,21.25041 38.54742,21.26451 37.93002,21.26451 L37.93002,21.26451 Z M37.92432,27.58101 C38.62812,27.58101 39.22482,27.59421 39.82092,27.57741 C40.43232,27.56001 40.84452,27.18501 40.74102,26.62311 C40.67232,26.25021 40.27572,25.73961 39.93582,25.65651 C39.30192,25.50081 38.60202,25.61151 37.92432,25.61151 L37.92432,27.58101 Z M35.18592,18.79791 C36.90162,18.79791 38.51952,18.74001 40.13172,18.81231 C42.33852,18.91101 43.67022,20.43621 43.29522,22.46061 C43.17372,23.11671 42.70662,23.70891 42.50172,24.12081 C42.85692,24.98211 43.38672,25.75221 43.46952,26.56761 C43.67772,28.61751 42.35622,29.99271 40.28682,30.04581 C38.73102,30.08571 37.17342,30.05811 35.61642,30.05781 C35.49852,30.05781 35.38062,30.03321 35.18592,30.01191 L35.18592,18.79791 Z" id="Fill-5" fill="#FFFFFF"></path>
                    <path d="M99.73923,22.41441 C98.93313,22.41441 98.16273,22.44111 97.39653,22.39431 C97.22283,22.38351 97.01043,22.14891 96.90903,21.96591 C96.51363,21.25431 95.89653,21.07971 95.15823,21.19971 C94.37463,21.32691 94.04343,21.90201 94.01433,22.60251 C93.96333,23.82261 93.94593,25.04961 94.01493,26.26821 C94.07343,27.29571 94.73883,27.80961 95.67933,27.71331 C96.62463,27.61611 97.07073,27.05061 97.03203,25.94001 C96.54153,25.91481 96.04503,25.88931 95.50353,25.86111 L95.50353,23.65701 L99.95823,23.65701 C99.85023,24.89241 99.86703,26.09331 99.61713,27.23601 C99.19743,29.15301 97.39413,30.29331 95.25183,30.17361 C93.10533,30.05391 91.48893,28.72491 91.31733,26.72181 C91.18563,25.18671 91.18443,23.62101 91.32453,22.08741 C91.50783,20.08461 93.17583,18.76791 95.31303,18.72441 C97.65183,18.67701 99.37743,19.93551 99.73683,21.95541 C99.75663,22.06701 99.73923,22.18491 99.73923,22.41441" id="Fill-7" fill="#FFFFFF"></path>
                    <path d="M118.03719,25.80465 C118.07109,26.19915 117.99309,26.64735 118.16649,26.95395 C118.37049,27.31485 118.78569,27.77115 119.12259,27.78225 C119.44989,27.79305 120.02439,27.33555 120.08529,27.00825 C120.22929,26.23605 120.22959,25.40145 120.08709,24.62895 C120.02679,24.30045 119.45769,23.84025 119.13009,23.84835 C118.79409,23.85705 118.37619,24.31095 118.17069,24.67035 C117.99579,24.97575 118.07169,25.42395 118.03719,25.80465 L118.03719,25.80465 Z M115.53849,18.83355 L118.03089,18.83355 L118.03089,22.01685 C118.33749,21.88395 118.53489,21.79785 118.73289,21.71235 C120.67779,20.87715 122.59809,22.00065 122.74299,24.09675 C122.81079,25.07745 122.81049,26.06715 122.77269,27.04995 C122.66379,29.88165 120.63879,30.98265 118.15389,29.59695 C117.43089,30.52935 116.45409,29.84475 115.53849,30.11055 L115.53849,18.83355 Z" id="Fill-9" fill="#FFFFFF"></path>
                    <g transform="translate(0.000000, 36.064500)">
                        <mask id="mask-4" fill="white">
                            <use xlink:href="#path-3"></use>
                        </mask>
                        <g id="Clip-12"></g>
                        <path d="M41.85405,5.09991 C27.93675,0.66351 13.90905,0.66351 -0.00015,5.09901 C9.31875,-1.43529 32.48865,-1.45059 41.85405,5.09991" id="Fill-11" fill="#FFFFFF" mask="url(#mask-4)"></path>
                    </g>
                    <path d="M58.18602,26.64282 C57.85242,26.64282 57.51762,26.58852 57.21012,26.65722 C56.86122,26.73492 56.50572,26.87922 56.21982,27.08652 C56.12622,27.15432 56.16792,27.65172 56.27382,27.70542 C56.61882,27.88062 57.03792,28.06482 57.40002,28.01952 C58.11882,27.92952 58.35402,27.41922 58.18602,26.64282 M58.10052,29.62002 C57.35442,30.18732 56.45832,30.27372 55.51602,30.02952 C54.31782,29.71932 53.60232,28.66092 53.65932,27.31002 C53.70972,26.11002 54.45072,25.23072 55.67562,25.04772 C56.49462,24.92532 57.33162,24.92502 58.37082,24.85632 C58.17342,24.44922 58.10502,24.00432 57.85722,23.85372 C57.08532,23.38482 56.31312,23.61252 55.67592,24.08322 C55.12272,23.57262 54.60462,23.09442 54.09612,22.62462 C55.01742,21.08412 58.90722,21.10002 60.00462,22.37412 C60.43962,22.87932 60.77982,23.62482 60.81762,24.28062 C60.92562,26.14902 60.85542,28.02702 60.85542,30.02982 C59.91462,29.93052 58.96212,30.43062 58.10052,29.62002" id="Fill-13" fill="#FFFFFF"></path>
                    <path d="M128.47407,26.65221 C127.99137,26.65221 127.55427,26.57031 127.17237,26.67951 C126.89277,26.75961 126.68577,27.09141 126.44607,27.31071 C126.68877,27.56121 126.89307,27.96051 127.18137,28.03461 C128.06427,28.26171 128.57367,27.70731 128.47407,26.65221 M128.50557,24.88311 C128.48757,23.51061 127.44897,23.23011 125.71767,24.22041 C125.54637,23.98071 125.36817,23.65791 125.11917,23.40411 C124.87077,23.15091 124.55127,22.96671 124.30557,22.78401 C125.32317,21.07341 129.18327,21.12501 130.30827,22.35351 C130.68927,22.76931 130.88727,23.36931 131.10207,23.91111 C131.20647,24.17481 131.17317,24.49941 131.17407,24.79641 C131.17947,26.51871 131.17677,28.24101 131.17677,30.08361 C130.22007,29.88171 129.26667,30.46101 128.61267,29.75991 C127.79997,29.88681 127.04517,30.14601 126.31467,30.08991 C124.80327,29.97321 123.98097,28.95591 123.976454,27.44211 C123.97227,26.04771 124.77987,25.17471 126.30057,24.99801 C127.00767,24.91611 127.72467,24.92091 128.50557,24.88311" id="Fill-15" fill="#FFFFFF"></path>
                    <path d="M47.49633,24.87096 L49.95753,24.87096 C49.98483,24.04686 49.57653,23.64996 48.84993,23.59986 C48.07263,23.54616 47.61963,23.94156 47.49633,24.87096 M52.55133,26.67186 L47.54733,26.67186 C47.81943,28.15236 49.11603,28.41306 50.79573,27.35376 C51.25413,27.83166 51.72363,28.32126 52.24503,28.86486 C50.90583,30.24366 49.27173,30.40116 47.54403,29.98836 C46.02873,29.62626 45.24333,28.53396 45.06933,27.03696 C44.98083,26.27616 44.94393,25.47966 45.06783,24.72966 C45.42183,22.58286 46.83933,21.41646 48.88743,21.46476 C50.90193,21.51186 52.26393,22.78596 52.54143,24.93396 C52.60893,25.45536 52.55133,25.99296 52.55133,26.67186" id="Fill-17" fill="#FFFFFF"></path>
                    <path d="M81.23415,30.01725 L78.68325,30.01725 L78.68325,25.79985 L78.68325,21.57855 C79.63815,21.71925 80.57805,21.17655 81.37365,22.02375 C81.65415,21.90015 81.97005,21.72855 82.30605,21.61845 C84.08565,21.03465 85.81005,22.13955 85.88325,24.00345 C85.96065,25.96815 85.90065,27.93795 85.90065,29.98395 L83.37765,29.98395 C83.37765,28.70895 83.37765,27.40965 83.37735,26.11005 C83.37735,25.75185 83.38845,25.39335 83.37255,25.03605 C83.34135,24.32415 83.04585,23.77995 82.25895,23.80545 C81.52935,23.82915 81.24105,24.34995 81.23745,25.03065 C81.23025,26.34345 81.23445,27.65625 81.23415,28.96905 C81.23415,29.29215 81.23415,29.61555 81.23415,30.01725" id="Fill-19" fill="#FFFFFF"></path>
                    <path d="M111.25305,25.80903 C111.19815,25.39623 111.24675,24.92733 111.05925,24.58743 C110.87505,24.25293 110.45535,23.84883 110.13285,23.84343 C109.80495,23.83833 109.22865,24.24543 109.18365,24.53703 C109.05405,25.37673 109.05405,26.26203 109.18365,27.10203 C109.22835,27.39063 109.80975,27.79473 110.13735,27.78723 C110.46075,27.77943 110.87835,27.37503 111.06165,27.03963 C111.24795,26.69883 111.19815,26.22993 111.25305,25.80903 L111.25305,25.80903 Z M113.75325,25.83573 C113.75325,26.13393 113.76735,26.43273 113.75115,26.73003 C113.63745,28.78983 112.30935,30.09423 110.25165,30.17643 C108.24345,30.25623 106.79025,29.09043 106.53975,27.08823 C106.43385,26.24043 106.43925,25.35723 106.54695,24.50943 C106.80045,22.51293 108.22305,21.39693 110.28915,21.46533 C112.24755,21.53073 113.58705,22.80363 113.74185,24.76293 C113.77005,25.11813 113.74605,25.47783 113.74605,25.83573 L113.75325,25.83573 Z" id="Fill-21" fill="#FFFFFF"></path>
                    <path d="M72.18393,25.71762 C72.22923,26.20272 72.15033,26.68422 72.33903,27.01272 C72.54063,27.36432 72.98103,27.75792 73.34253,27.78402 C73.63503,27.80472 74.19243,27.33822 74.23413,27.03402 C74.34963,26.19552 74.32923,25.31772 74.20173,24.47952 C74.16093,24.21012 73.62063,23.83902 73.30653,23.8369128 C72.99273,23.83512 72.55293,24.17202 72.39183,24.47712 C72.19713,24.84732 72.23703,25.33992 72.18393,25.71762 M76.92213,25.83642 C76.92363,26.13462 76.93713,26.43342 76.92153,26.73072 C76.80933,28.83072 75.43803,30.15072 73.34673,30.17832 C71.29713,30.20532 69.88203,28.95942 69.70473,26.91132 C69.64053,26.17362 69.64443,25.42062 69.70923,24.68292 C69.88953,22.63932 71.29623,21.43032 73.38663,21.46392 C75.44133,21.49722 76.79913,22.79652 76.91823,24.85332 C76.93713,25.18002 76.92093,25.50882 76.92213,25.83642" id="Fill-23" fill="#FFFFFF"></path>
                    <path d="M67.18557,27.46431 C67.76007,27.99681 68.32287,28.51851 68.93667,29.08761 C67.63827,30.24561 66.22077,30.41301 64.70667,29.92431 C63.17187,29.42931 62.56467,28.19871 62.39007,26.71611 C62.32077,26.12811 62.32257,25.51911 62.38857,24.93021 C62.55507,23.44371 63.16767,22.20891 64.69197,21.70821 C66.19797,21.21351 67.61967,21.38301 68.88447,22.49631 C68.28717,23.08161 67.74207,23.61501 67.18737,24.15831 C65.74257,23.45541 64.99827,23.89551 64.90287,25.55301 C64.89087,25.76091 64.89117,25.97121 64.90797,26.17881 C65.03787,27.77061 65.80437,28.18521 67.18557,27.46431" id="Fill-25" fill="#FFFFFF"></path>
                    <path d="M136.90467,27.95241 L136.90467,30.09231 C136.12917,30.04101 135.37707,30.08121 134.66967,29.92281 C133.70697,29.70771 133.04037,29.01021 133.02027,28.03131 C132.95817,24.99261 132.99747,21.95151 132.99747,18.85011 L135.51087,18.85011 L135.51087,23.95401 C135.51087,24.81981 135.51057,25.68561 135.51087,26.55141 C135.51147,27.85671 135.51177,27.85671 136.90467,27.95241" id="Fill-27" fill="#FFFFFF"></path>
                    <path d="M101.56545,18.84048 L104.14305,18.84048 L104.14305,21.27888 C104.14305,23.00838 104.14245,24.73728 104.14335,26.46678 C104.14425,27.81708 104.14545,27.81708 105.51375,27.99168 C105.51375,28.62198 105.51375,29.26398 105.51435,29.90598 C103.16895,30.61248 101.56845,29.47548 101.56605,27.09678 C101.56365,24.65178 101.56545,22.20708 101.56545,19.76178 L101.56545,18.84048 Z" id="Fill-29" fill="#FFFFFF"></path>
                    <path d="M23.42412,12.14586 C21.51462,10.73766 19.69392,10.73706 17.77212,12.14796 C17.58672,11.30796 17.38722,10.54896 17.27292,9.77706 C17.24742,9.60426 17.47422,9.30306 17.66112,9.20406 C19.65642,8.14806 21.66972,8.23566 23.65632,9.22596 C23.84112,9.31806 24.02622,9.68916 23.99052,9.89196 C23.86212,10.61706 23.63892,11.32566 23.42412,12.14586" id="Fill-31" fill="#FFFFFF"></path>
                    <path d="M22.87641,7.7229 L18.72681,7.7229 L18.72681,5.0694 C19.99191,5.0694 21.21291,5.0541 22.43241,5.0889 C22.58421,5.0931 22.84671,5.3541 22.85631,5.5086 C22.90131,6.2448 22.87641,6.9855 22.87641,7.7229" id="Fill-33" fill="#FFFFFF"></path>
                </g>
            </g>
        </g>
    </g>
</svg>